<svg width="16" height="16" viewBox="0 0 16 16" fill="none" xmlns="http://www.w3.org/2000/svg">
<path d="M7.89806 6.21865H15.1443C15.3002 6.21865 15.4264 6.34667 15.4264 6.50488V13.6604C15.4264 14.2919 14.9203 14.8053 14.2981 14.8053H6.4C5.77771 14.8053 5.2717 14.2919 5.2717 13.6604V6.50488C5.2717 6.34667 5.39786 6.21865 5.55378 6.21865H6.20561L6.20561 5.07375C6.18354 4.66368 6.02645 4.0333 5.62112 3.5377C5.20794 3.07503 4.61134 2.78398 3.94903 2.78398C2.75437 2.78398 1.77354 3.73091 1.69722 4.9239C1.69405 4.97345 1.69244 6.09008 1.69244 6.14042H0C0 6.09025 0.000912731 4.97363 0.00272319 4.9239C0.0806515 2.78352 1.82093 1.06665 3.94903 1.06665C6.12657 1.06665 7.89806 2.86422 7.89806 5.07375V6.21865Z" fill="#9F9F9F"/>
<path d="M11.1233 12.4202C11.1768 12.3595 11.2024 12.2784 11.1936 12.1977L11.0156 10.574C11.3046 10.3607 11.4773 10.0233 11.4773 9.65326C11.4773 9.02182 10.9713 8.50836 10.349 8.50836C9.72672 8.50836 9.2207 9.02184 9.2207 9.65326C9.2207 10.0233 9.39341 10.3607 9.68237 10.574L9.50443 12.1977C9.49559 12.2785 9.52122 12.3595 9.57466 12.4202C9.62811 12.4808 9.70469 12.5155 9.78484 12.5155H10.9131C10.9933 12.5155 11.0699 12.4808 11.1233 12.4202Z" fill="white"/>
</svg>
